HIERARCHY
ROOT Hips
{
	OFFSET 0.00000 0.00000 0.00000
	CHANNELS 6 Xposition Yposition Zposition Zrotation Yrotation Xrotation 
	JOINT LHipJoint
	{
		OFFSET 0 0 0
		CHANNELS 3 Zrotation Yrotation Xrotation
		JOINT LeftUpLeg
		{
			OFFSET 1.53927 -1.56553 0.51726
			CHANNELS 3 Zrotation Yrotation Xrotation
			JOINT LeftLeg
			{
				OFFSET 2.38199 -6.54447 0.00000
				CHANNELS 3 Zrotation Yrotation Xrotation
				JOINT LeftFoot
				{
					OFFSET 2.35499 -6.47028 0.00000
					CHANNELS 3 Zrotation Yrotation Xrotation
					JOINT LeftToeBase
					{
						OFFSET 0.13641 -0.37478 1.84251
						CHANNELS 3 Zrotation Yrotation Xrotation
						End Site
						{
							OFFSET 0.00000 -0.00000 0.95212
						}
					}
				}
			}
		}
	}
	JOINT RHipJoint
	{
		OFFSET 0 0 0
		CHANNELS 3 Zrotation Yrotation Xrotation
		JOINT RightUpLeg
		{
			OFFSET -1.43919 -1.56553 0.51726
			CHANNELS 3 Zrotation Yrotation Xrotation
			JOINT RightLeg
			{
				OFFSET -2.34860 -6.45274 0.00000
				CHANNELS 3 Zrotation Yrotation Xrotation
				JOINT RightFoot
				{
					OFFSET -2.25563 -6.19730 0.00000
					CHANNELS 3 Zrotation Yrotation Xrotation
					JOINT RightToeBase
					{
						OFFSET -0.19755 -0.54277 1.84912
						CHANNELS 3 Zrotation Yrotation Xrotation
						End Site
						{
							OFFSET -0.00000 -0.00000 0.97032
						}
					}
				}
			}
		}
	}
	JOINT LowerBack
	{
		OFFSET 0 0 0
		CHANNELS 3 Zrotation Yrotation Xrotation
		JOINT Spine
		{
			OFFSET -0.06402 1.88434 -0.00445
			CHANNELS 3 Zrotation Yrotation Xrotation
			JOINT Spine1
			{
				OFFSET 0.00756 1.88511 0.04237
				CHANNELS 3 Zrotation Yrotation Xrotation
				JOINT Neck
				{
					OFFSET 0 0 0
					CHANNELS 3 Zrotation Yrotation Xrotation
					JOINT Neck1
					{
						OFFSET -0.06230 1.34710 0.03308
						CHANNELS 3 Zrotation Yrotation Xrotation
						JOINT Head
						{
							OFFSET -0.02442 1.34501 -0.13654
							CHANNELS 3 Zrotation Yrotation Xrotation
							End Site
							{
								OFFSET -0.00508 1.35584 -0.05075
							}
						}
					}
				}
				JOINT LeftShoulder
				{
					OFFSET 0 0 0
					CHANNELS 3 Zrotation Yrotation Xrotation
					JOINT LeftArm
					{
						OFFSET 2.76911 0.54460 0.39412
						CHANNELS 3 Zrotation Yrotation Xrotation
						JOINT LeftForeArm
						{
							OFFSET 4.40919 -0.00000 -0.00000
							CHANNELS 3 Zrotation Yrotation Xrotation
							JOINT LeftHand
							{
								OFFSET 3.03857 -0.00000 -0.00000
								CHANNELS 3 Zrotation Yrotation Xrotation
								JOINT LeftFingerBase
								{
									OFFSET 0 0 0
									CHANNELS 3 Zrotation Yrotation Xrotation
									JOINT LeftHandIndex1
									{
										OFFSET 0.52321 -0.00000 -0.00000
										CHANNELS 3 Zrotation Yrotation Xrotation
										End Site
										{
											OFFSET 0.42182 -0.00000 -0.00000
										}
									}
								}
								JOINT LThumb
								{
									OFFSET 0 0 0
									CHANNELS 3 Zrotation Yrotation Xrotation
									End Site
									{
										OFFSET 0.42826 -0.00000 0.42826
									}
								}
							}
						}
					}
				}
				JOINT RightShoulder
				{
					OFFSET 0 0 0
					CHANNELS 3 Zrotation Yrotation Xrotation
					JOINT RightArm
					{
						OFFSET -2.99050 0.75949 0.48975
						CHANNELS 3 Zrotation Yrotation Xrotation
						JOINT RightForeArm
						{
							OFFSET -4.61969 -0.00000 -0.00000
							CHANNELS 3 Zrotation Yrotation Xrotation
							JOINT RightHand
							{
								OFFSET -3.09382 -0.00000 -0.00000
								CHANNELS 3 Zrotation Yrotation Xrotation
								JOINT RightFingerBase
								{
									OFFSET 0 0 0
									CHANNELS 3 Zrotation Yrotation Xrotation
									JOINT RightHandIndex1
									{
										OFFSET -0.50090 -0.00000 -0.00000
										CHANNELS 3 Zrotation Yrotation Xrotation
										End Site
										{
											OFFSET -0.40384 -0.00000 -0.00000
										}
									}
								}
								JOINT RThumb
								{
									OFFSET 0 0 0
									CHANNELS 3 Zrotation Yrotation Xrotation
									End Site
									{
										OFFSET -0.41000 -0.00000 0.41000
									}
								}
							}
						}
					}
				}
			}
		}
	}
}
MOTION
Frames: 13
Frame Time: .0083333
3.0601 16.2941 -0.0366 174.8240 -64.2077 -165.9830 0.0000 0.0000 0.0000 -23.8394 -13.1945 -6.7177 1.1552 6.8240 19.1950 -2.0571 29.6333 -29.7459 2.6950 10.1842 29.5753 0.0000 0.0000 0.0000 9.5273 31.7921 -10.4749 -1.0148 -6.4093 17.9766 -0.2974 1.2887 -9.9289 -0.0001 -0.0564 0.1549 -2.2548 -0.4239 -4.0736 0.0635 -0.6488 -4.3683 1.3169 -0.3208 -2.1848 10.5187 17.1783 3.3654 -8.8325 24.1986 21.6833 -2.6137 11.4579 8.6455 0.0000 0.0000 0.0000 -90.9653 24.1581 10.1835 31.1812 -41.8846 -12.1907 -0.0000 -0.0000 8.1544 29.0587 -12.5062 -6.8610 -7.1250 0.0000 -0.0000 1.2352 15.7437 -0.8539 0.0000 0.0000 0.0000 89.2718 -21.7243 12.9441 -25.0300 36.2346 -8.3076 0.0000 0.0000 1.2436 -22.4412 -44.1150 16.0398 7.1250 -0.0000 -0.0000 28.7222 -74.7605 -20.5505
3.0579 16.2945 -0.0380 174.7820 -64.2221 -165.8900 0.0000 0.0000 0.0000 -23.8402 -13.1751 -6.7827 1.1554 6.8246 19.1969 -2.0305 29.5358 -29.7330 2.7387 10.2595 29.8211 0.0000 0.0000 0.0000 9.4858 31.7847 -10.5280 -1.0156 -6.4115 17.9832 -0.2964 1.2685 -9.9178 -0.0006 -0.1569 0.4310 -2.2152 -0.4096 -4.3122 0.0116 -0.6207 -4.2572 1.2391 -0.3110 -1.9384 10.5666 17.1855 3.0021 -8.7986 24.2039 21.8262 -2.5679 11.4489 8.7591 -0.0000 -0.0000 0.0000 -90.8835 24.0449 10.2012 31.2634 -41.9520 -12.2456 -0.0000 -0.0000 7.9960 28.8157 -12.0605 -6.5570 -7.1250 0.0000 -0.0000 1.1079 16.2769 -0.7531 -0.0000 -0.0000 0.0000 89.3633 -21.5322 12.9042 -25.1313 36.3379 -8.3676 0.0000 0.0000 1.2599 -22.3711 -44.4456 16.0771 7.1250 -0.0000 -0.0000 29.6206 -74.9963 -21.3617
3.0567 16.2942 -0.0378 174.7190 -64.3184 -165.8880 0.0000 0.0000 0.0000 -23.8657 -13.2163 -6.7151 1.1557 6.8253 19.1990 -2.0341 29.5386 -29.7110 2.7541 10.2860 29.9079 0.0000 0.0000 0.0000 9.5149 31.6767 -10.4500 -1.0163 -6.4139 17.9900 -0.2972 1.2635 -9.9318 -0.0011 -0.2142 0.5884 -2.2331 -0.4720 -4.2235 0.0214 -0.7072 -4.2957 1.2582 -0.3528 -2.0242 10.6781 17.1257 3.1888 -8.9975 24.1538 21.6777 -2.6703 11.4303 8.7110 -0.0000 0.0000 0.0000 -90.9824 24.2881 10.0336 31.3647 -42.0348 -12.3133 -0.0000 -0.0000 7.8662 28.7988 -11.9596 -6.4988 -7.1250 0.0000 -0.0000 1.1049 16.3928 -0.7483 -0.0000 0.0000 0.0000 89.2960 -21.6058 13.0681 -25.1815 36.3890 -8.3974 0.0000 0.0000 1.2529 -22.4711 -44.3038 16.1140 7.1250 -0.0000 -0.0000 29.1444 -74.9220 -20.9608
3.0568 16.2941 -0.0376 174.7090 -64.3772 -165.9300 0.0000 0.0000 0.0000 -23.8612 -13.3517 -6.6134 1.1552 6.8240 19.1949 -2.0144 29.5371 -29.8598 2.7531 10.2842 29.9020 0.0000 0.0000 0.0000 9.5559 31.5919 -10.4070 -1.0187 -6.4211 18.0114 -0.2993 1.2905 -9.9614 -0.0002 -0.0948 0.2605 -2.2636 -0.5128 -4.1135 0.0416 -0.7652 -4.3417 1.2962 -0.3796 -2.1305 10.7114 16.9533 3.4957 -9.1937 23.9393 21.3834 -2.8012 11.3402 8.5620 -0.0000 -0.0000 0.0000 -91.0719 24.4949 9.8694 31.3453 -42.0190 -12.3004 -0.0000 -0.0000 7.8364 29.0023 -12.2162 -6.6904 -7.1250 0.0000 -0.0000 1.2227 16.0781 -0.8365 -0.0000 -0.0000 0.0000 89.2238 -21.6623 13.2514 -25.1796 36.3870 -8.3962 0.0000 0.0000 1.1859 -22.7240 -43.7581 16.1537 7.1250 -0.0000 -0.0000 27.5193 -74.5788 -19.5560
3.0554 16.2944 -0.0405 174.7370 -64.3757 -165.9640 0.0000 0.0000 0.0000 -23.8358 -13.3128 -6.5969 1.1541 6.8209 19.1860 -1.9813 29.4477 -29.9157 2.7534 10.2847 29.9038 0.0000 0.0000 0.0000 9.5954 31.6133 -10.3952 -1.0225 -6.4327 18.0453 -0.2991 1.2581 -9.9655 -0.0004 -0.1239 0.3405 -2.3474 -0.5444 -4.0644 0.0941 -0.8080 -4.3846 1.3971 -0.3975 -2.1993 10.6749 16.8040 3.6604 -9.3072 23.7432 21.1749 -2.8797 11.2512 8.4493 -0.0000 -0.0000 0.0000 -91.1911 24.6892 9.6995 31.3818 -42.0487 -12.3247 -0.0000 -0.0000 7.7388 29.0876 -12.3238 -6.7714 -7.1250 0.0000 -0.0000 1.2718 15.9458 -0.8737 -0.0000 -0.0000 0.0000 89.1176 -21.6268 13.3302 -25.1115 36.3177 -8.3558 0.0000 0.0000 1.3026 -22.9086 -43.0256 16.0847 7.1250 -0.0000 -0.0000 25.6431 -74.0439 -17.8941
3.0527 16.2932 -0.0433 174.7500 -64.3846 -166.0030 0.0000 0.0000 0.0000 -23.8311 -13.2004 -6.5907 1.1537 6.8198 19.1825 -2.0191 29.4800 -29.6962 2.7352 10.2535 29.8016 0.0000 0.0000 0.0000 9.6412 31.6088 -10.3514 -1.0265 -6.4448 18.0805 -0.2972 1.2329 -9.9387 -0.0006 -0.1617 0.4442 -2.2928 -0.4826 -4.3081 0.0449 -0.7116 -4.1951 1.3141 -0.3539 -1.8719 10.6819 16.6013 3.7062 -9.5960 23.4945 20.7398 -3.0168 11.1375 8.3002 -0.0000 0.0000 0.0000 -91.0885 24.4653 9.7159 31.4438 -42.0993 -12.3663 -0.0000 -0.0000 7.7798 28.9409 -12.2586 -6.6963 -7.1250 0.0000 -0.0000 1.1767 16.0380 -0.8060 -0.0000 0.0000 0.0000 89.2516 -21.3328 13.0638 -25.1389 36.3456 -8.3721 0.0000 0.0000 1.4580 -22.5784 -42.7706 15.7680 7.1250 -0.0000 -0.0000 25.5273 -73.7103 -17.6320
3.0500 16.2907 -0.0455 174.6880 -64.3965 -165.9970 0.0000 0.0000 0.0000 -23.8845 -13.1311 -6.5426 1.1549 6.8230 19.1920 -2.1257 29.6968 -29.3529 2.6674 10.1361 29.4185 0.0000 0.0000 0.0000 9.6564 31.5017 -10.3148 -1.0293 -6.4534 18.1057 -0.2972 1.3157 -9.9209 -0.0000 -0.0105 0.0288 -2.4944 -0.5126 -4.0556 0.1849 -0.7602 -4.3757 1.5739 -0.3679 -2.1947 10.6462 16.4553 4.1147 -9.8266 23.3319 20.5853 -3.1479 11.0588 8.1839 0.0000 -0.0000 0.0000 -91.4848 24.9124 9.3581 31.6766 -42.2878 -12.5227 -0.0000 -0.0000 7.8082 28.8183 -12.1827 -6.6225 -7.1250 0.0000 -0.0000 1.0989 16.1391 -0.7503 0.0000 -0.0000 0.0000 88.9268 -21.7646 13.3623 -25.3201 36.5294 -8.4797 0.0000 0.0000 1.2830 -22.3494 -43.0001 15.6632 7.1250 -0.0000 -0.0000 26.3051 -73.8184 -18.2473
3.0487 16.2896 -0.0478 174.5890 -64.4658 -165.9420 0.0000 0.0000 0.0000 -23.9327 -13.0853 -6.5068 1.1563 6.8270 19.2037 -2.1316 29.6798 -29.2666 2.6027 10.0224 29.0492 0.0000 0.0000 0.0000 9.6573 31.3945 -10.2810 -1.0316 -6.4603 18.1260 -0.3024 1.3610 -9.9999 -0.0001 0.0721 -0.1981 -2.4287 -0.4754 -4.2906 0.0906 -0.6983 -4.2009 1.4377 -0.3429 -1.8867 10.4528 16.3073 3.8700 -9.6740 23.0884 20.5483 -3.0880 10.9360 8.1404 0.0000 -0.0000 0.0000 -91.3341 24.7994 9.4996 31.7980 -42.3855 -12.6044 -0.0000 -0.0000 7.7446 28.9061 -12.1221 -6.6141 -7.1250 0.0000 -0.0000 1.1648 16.1962 -0.7938 0.0000 -0.0000 0.0000 89.1051 -21.6093 13.2234 -25.4544 36.6648 -8.5598 0.0000 0.0000 1.1996 -22.5965 -43.3402 15.9416 7.1250 -0.0000 -0.0000 26.7320 -74.1899 -18.7614
3.0493 16.2906 -0.0487 174.6160 -64.5725 -165.9720 0.0000 0.0000 0.0000 -23.8805 -13.1481 -6.4955 1.1584 6.8331 19.2217 -2.0165 29.3879 -29.5100 2.6476 10.1015 29.3061 0.0000 0.0000 0.0000 9.6976 31.3943 -10.2556 -1.0326 -6.4636 18.1356 -0.3066 1.2893 -10.0861 -0.0001 0.0533 -0.1465 -2.4965 -0.5243 -4.1004 0.1759 -0.7763 -4.3972 1.5652 -0.3764 -2.1913 10.1496 16.2871 3.6326 -9.1627 22.9851 21.1197 -2.8745 10.8643 8.2631 -0.0000 -0.0000 0.0000 -91.5103 25.2113 9.3365 31.8259 -42.4079 -12.6232 -0.0000 -0.0000 7.7662 29.0738 -12.2339 -6.7195 -7.1250 0.0000 -0.0000 1.2704 16.0490 -0.8699 -0.0000 -0.0000 0.0000 88.9620 -22.0708 13.3473 -25.6977 36.9086 -8.7055 0.0000 0.0000 1.1088 -22.7701 -43.7085 16.1743 7.1250 -0.0000 -0.0000 27.3457 -74.5557 -19.4152
3.0497 16.2915 -0.0490 174.6460 -64.6582 -165.9900 0.0000 0.0000 0.0000 -23.8250 -13.1412 -6.5475 1.1617 6.8424 19.2493 -1.9687 29.2111 -29.4886 2.6946 10.1834 29.5726 0.0000 0.0000 0.0000 9.7180 31.4010 -10.2496 -1.0314 -6.4597 18.1243 -0.3052 1.2112 -10.0811 -0.0000 -0.0196 0.0538 -2.3968 -0.5131 -4.3249 0.1347 -0.7527 -4.2777 1.4640 -0.3705 -1.9445 9.7865 16.2488 2.9041 -8.6389 22.8452 21.6184 -2.6094 10.7650 8.4324 -0.0000 -0.0000 0.0000 -91.4148 24.9851 9.3569 31.6751 -42.2866 -12.5217 -0.0000 -0.0000 7.6785 29.2414 -12.3264 -6.8152 -7.1250 0.0000 -0.0000 1.3773 15.9230 -0.9469 -0.0000 -0.0000 0.0000 89.0658 -21.9262 13.2322 -25.8357 37.0460 -8.7885 0.0000 0.0000 1.0392 -23.2483 -43.9024 16.5887 7.1250 -0.0000 -0.0000 27.1875 -74.8922 -19.4883
3.0488 16.2917 -0.0497 174.5680 -64.7806 -165.9150 0.0000 0.0000 0.0000 -23.8287 -13.0719 -6.6184 1.1655 6.8533 19.2815 -2.0132 29.2329 -29.1864 2.6398 10.0877 29.2612 0.0000 0.0000 0.0000 9.7097 31.3335 -10.2134 -1.0280 -6.4495 18.0944 -0.3041 1.1322 -10.0808 -0.0000 -0.0315 0.0867 -2.5741 -0.6839 -4.1263 0.2851 -0.9896 -4.4702 1.7166 -0.4796 -2.2402 9.7497 16.1557 3.1800 -8.8797 22.7571 21.5316 -2.7192 10.7096 8.3712 0.0000 0.0000 0.0000 -91.9189 25.3599 8.7210 31.7472 -42.3447 -12.5702 -0.0000 -0.0000 7.5375 29.3000 -12.1229 -6.7214 -7.1250 0.0000 -0.0000 1.4364 16.1455 -0.9806 0.0000 0.0000 0.0000 88.6974 -22.1749 13.6451 -25.8866 37.0965 -8.8192 0.0000 0.0000 0.9723 -24.3989 -43.9107 17.4629 7.1250 -0.0000 -0.0000 25.6996 -75.3333 -18.6234
3.0478 16.2920 -0.0514 174.5400 -64.8830 -165.8470 0.0000 0.0000 0.0000 -23.8031 -13.1675 -6.6581 1.1694 6.8644 19.3142 -2.0033 29.2063 -29.2049 2.5835 9.9881 28.9383 0.0000 0.0000 0.0000 9.7010 31.3096 -10.2101 -1.0247 -6.4394 18.0648 -0.3060 1.0624 -10.1298 -0.0001 0.0719 -0.1976 -2.5577 -0.7536 -4.4244 0.2441 -1.0675 -4.3028 1.6568 -0.5237 -1.8975 9.6230 15.9693 2.9377 -9.0303 22.5087 21.2600 -2.7660 10.5778 8.2943 0.0000 0.0000 0.0000 -91.9625 25.1601 8.4213 31.8230 -42.4056 -12.6213 -0.0000 -0.0000 7.4846 29.1052 -11.8193 -6.5053 -7.1250 0.0000 -0.0000 1.3292 16.5132 -0.8968 0.0000 0.0000 0.0000 88.8043 -21.7742 13.5393 -25.7931 37.0036 -8.7628 0.0000 0.0000 1.1084 -23.6505 -42.9243 16.6072 7.1250 -0.0000 -0.0000 24.4575 -74.2309 -17.1379
3.0477 16.2937 -0.0529 174.5970 -64.9992 -165.8290 0.0000 0.0000 0.0000 -23.7269 -13.0642 -6.7881 1.1708 6.8682 19.3255 -2.0148 29.1114 -28.8965 2.4410 9.7298 28.1061 0.0000 0.0000 0.0000 9.7070 31.3215 -10.2559 -1.0251 -6.4406 18.0684 -0.3086 0.9899 -10.1913 -0.0003 0.1141 -0.3134 -2.6518 -0.8534 -4.3829 0.3305 -1.2051 -4.4199 1.7967 -0.5881 -2.0324 9.4700 15.7423 2.8469 -8.9860 22.1810 21.2825 -2.7670 10.4085 8.2578 -0.0000 -0.0000 0.0000 -92.1630 25.3693 8.0711 31.8155 -42.3996 -12.6162 -0.0000 -0.0000 7.5103 29.1475 -11.9896 -6.6082 -7.1250 0.0000 -0.0000 1.3432 16.3155 -0.9120 -0.0000 -0.0000 0.0000 88.6424 -21.8166 13.6412 -25.7208 36.9317 -8.7194 0.0000 0.0000 1.1293 -21.8105 -41.4271 14.8309 7.1250 -0.0000 -0.0000 23.8909 -72.2952 -15.7489
